<svg xmlns="http://www.w3.org/2000/svg" version="1.1" xmlns:xlink="http://www.w3.org/1999/xlink" xmlns:svgjs="http://svgjs.com/svgjs" width="512" height="512" x="0" y="0" viewBox="0 0 512 512" style="enable-background:new 0 0 512 512" xml:space="preserve" class=""><g><path xmlns="http://www.w3.org/2000/svg" d="m494.193 324.521c4.44-18.451 6.809-37.709 6.809-57.523 0-135.311-109.691-245.002-245.002-245.002s-245.002 109.691-245.002 245.002c0 12.29.917 24.366 2.664 36.171z" fill="#61ccf8" data-original="#61ccf8" class=""></path><path xmlns="http://www.w3.org/2000/svg" d="m158.478 491.803c-.599-1.933-1.01-3.953-1.191-6.046-3.716-43.187-12.147-141.162-14.257-165.683l-6.004-69.774h-3.049c-8.203 0-14.854-6.65-14.854-14.854 0-7.937 6.23-14.401 14.064-14.814-1.505-3.168-2.747-6.972-3.659-11.581-4.843-24.491-20.398-34.309-35.673-37.8-23.127-5.285-47.441 3.871-61.338 23.098-9.179 12.699-14.394 30.338-1.88 51.941 17.384 30.01-7.085 39.281-17.118 55.872 12.266 85.313 68.474 156.415 144.959 189.641z" fill="#68c37d" data-original="#68c37d" class=""></path><path xmlns="http://www.w3.org/2000/svg" d="m158.478 491.803c-.599-1.933-1.01-3.953-1.191-6.046-3.716-43.187-12.147-141.162-14.257-165.683l-6.004-69.774h-3.049c-8.203 0-14.854-6.65-14.854-14.854 0-7.937 6.23-14.401 14.064-14.814-1.505-3.168-2.747-6.972-3.659-11.581-4.843-24.491-20.398-34.309-35.673-37.8-23.127-5.285-47.441 3.871-61.338 23.098-9.179 12.699-14.394 30.338-1.88 51.941 17.384 30.01-7.085 39.281-17.118 55.872 12.266 85.313 68.474 156.415 144.959 189.641z" fill="#68c37d" data-original="#68c37d" class=""></path><path xmlns="http://www.w3.org/2000/svg" d="m158.478 491.803c-.599-1.933-1.011-3.953-1.191-6.046-3.716-43.187-12.146-141.162-14.257-165.683l-6.004-69.774h-3.048c-8.204 0-14.854-6.65-14.854-14.854 0-7.937 6.229-14.401 14.064-14.814-1.505-3.168-2.747-6.972-3.659-11.581-4.843-24.491-20.397-34.309-35.673-37.8-23.127-5.285-47.441 3.871-61.338 23.098-8.801 12.176-13.947 28.896-3.326 49.295 6.335-3.785 14.131-5.156 21.339-3.508 9.363 2.141 17.423 9.292 20.665 18.333 3.139 8.752 1.858 18.508-.888 27.391-2.747 8.883-6.896 17.286-9.584 26.186-5.003 16.567-4.5 35.424 4.535 50.184 8.556 13.978 23.47 22.698 34.356 34.95 16.704 18.801 22.526 46.374 15.871 70.518 13.408 9.405 27.798 17.505 42.992 24.105z" fill="#489160" data-original="#489160" class=""></path><path xmlns="http://www.w3.org/2000/svg" d="m332.509 235.447c0 7.309-5.946 13.254-13.254 13.254h-4.517l-12.893 149.842c7.291-.598 14.704.269 21.672 2.609 6.707 2.252 14.095 2.252 20.801 0 10.465-3.513 22.033-3.718 32.575-.573 3.044.907 5.439 3.264 6.407 6.304l.144.45.43.196c10.986 5.016 19.766 13.391 25.288 23.598l56.45-37.256c13.043-21.503 22.878-45.168 28.824-70.34v-240.053c0-20.052-16.256-36.308-36.308-36.308h-61.538c.239 1.344.371 2.725.371 4.138 0 13.005-10.581 23.585-23.586 23.585h-103.62c-13.004 0-23.584-10.58-23.584-23.586 0-1.412.131-2.793.371-4.137h-61.538c-20.052 0-36.308 16.256-36.308 36.308v138.714h170.558c7.309 0 13.255 5.946 13.255 13.255z" fill="#384051" data-original="#384051" class=""></path><path xmlns="http://www.w3.org/2000/svg" d="m227.22 47.17h-42.215c-20.052 0-36.308 16.256-36.308 36.308v138.714h80.198v-146.233c-18.576-14.406-1.675-28.789-1.675-28.789z" fill="#2d3243" data-original="#2d3243" class=""></path><path xmlns="http://www.w3.org/2000/svg" d="m465.646 83.998c0-4.44-3.599-8.039-8.039-8.039h-272.082c-4.44 0-8.039 3.599-8.039 8.039v138.194h141.769c7.309 0 13.254 5.946 13.254 13.255s-5.946 13.254-13.254 13.254h-4.517l-12.893 149.842c7.291-.598 14.704.269 21.672 2.609 6.708 2.252 14.095 2.252 20.801 0 10.465-3.513 22.033-3.718 32.575-.573 3.044.907 5.438 3.264 6.407 6.304l.144.45.43.196c18.067 8.249 30.183 25.571 31.618 45.208.005.074.007.148.012.223 19.67-16.887 36.634-36.833 50.143-59.112v-309.85z" fill="#f7f3f1" data-original="#f7f3f1" class=""></path><path xmlns="http://www.w3.org/2000/svg" d="m228.895 75.959h-43.37c-4.44 0-8.039 3.599-8.039 8.039v138.194h43.37v-138.194c-.001-4.44 3.599-8.039 8.039-8.039z" fill="#cde2ff" data-original="#cde2ff" class=""></path><g xmlns="http://www.w3.org/2000/svg" fill="#fff"><path d="m257.245 148.212h-24.524c-7.037 0-12.795 5.758-12.795 12.795v24.524c0 7.037 5.758 12.795 12.795 12.795h24.524c7.037 0 12.795-5.758 12.795-12.795v-24.524c0-7.037-5.758-12.795-12.795-12.795z" fill="#ffffff" data-original="#ffffff" class=""></path><path d="m417.537 169.665h-105.203c-4.417 0-7.997-3.58-7.997-7.997s3.58-7.997 7.997-7.997h105.203c4.417 0 7.997 3.58 7.997 7.997s-3.58 7.997-7.997 7.997z" fill="#ffffff" data-original="#ffffff" class=""></path><path d="m385.728 199.264h-73.394c-4.417 0-7.997-3.58-7.997-7.997s3.58-7.997 7.997-7.997h73.394c4.417 0 7.997 3.58 7.997 7.997s-3.58 7.997-7.997 7.997z" fill="#ffffff" data-original="#ffffff" class=""></path><path d="m417.537 248.82h-57.777c-4.417 0-7.997-3.58-7.997-7.997s3.58-7.997 7.997-7.997h57.777c4.417 0 7.997 3.58 7.997 7.997 0 4.418-3.58 7.997-7.997 7.997z" fill="#ffffff" data-original="#ffffff" class=""></path><path d="m385.728 278.419h-43.56c-4.417 0-7.997-3.58-7.997-7.997s3.58-7.997 7.997-7.997h43.56c4.417 0 7.997 3.58 7.997 7.997 0 4.418-3.58 7.997-7.997 7.997z" fill="#ffffff" data-original="#ffffff" class=""></path><path d="m417.537 327.977h-79.355c-4.417 0-7.997-3.58-7.997-7.997s3.58-7.997 7.997-7.997h79.355c4.417 0 7.997 3.58 7.997 7.997s-3.58 7.997-7.997 7.997z" fill="#ffffff" data-original="#ffffff" class=""></path><path d="m385.728 357.576h-49.489c-4.417 0-7.997-3.58-7.997-7.997s3.58-7.997 7.997-7.997h49.489c4.417 0 7.997 3.58 7.997 7.997s-3.58 7.997-7.997 7.997z" fill="#ffffff" data-original="#ffffff" class=""></path></g><path xmlns="http://www.w3.org/2000/svg" d="m240.127 186.918-14.266-14.266c-3.123-3.124-3.123-8.186 0-11.31 3.124-3.122 8.186-3.122 11.31 0l8.611 8.612 22.877-22.879c3.124-3.122 8.186-3.122 11.31 0 3.123 3.124 3.123 8.186 0 11.31l-28.533 28.533c-3.124 3.123-8.185 3.122-11.309 0z" fill="#61ccf8" data-original="#61ccf8" class=""></path><path xmlns="http://www.w3.org/2000/svg" d="m148.195 380.096-.989-11.491-49.791-118.142c-4.082-9.684-18.644-4.201-15.324 5.77l74.77 224.565z" fill="#97d57e" data-original="#97d57e" class=""></path><path xmlns="http://www.w3.org/2000/svg" d="m116.18 351.332-43.436-22.898c-9.297-4.901-17.081 8.573-8.191 14.178l61.672 38.89z" fill="#97d57e" data-original="#97d57e" class=""></path><path xmlns="http://www.w3.org/2000/svg" d="m284.491 506.312c-6.678-2.945-12.77-7.227-17.82-12.66-10.352-11.135-15.44-25.664-14.327-40.911 1.391-19.063 13.032-36.161 30.381-44.621l.424-.207.132-.452c.887-3.035 3.187-5.432 6.152-6.411 4.536-1.498 9.264-2.361 14.026-2.609l12.842-149.24h-48.953-84.661-48.953l20.355 236.557c.131 1.519.384 3 .739 4.438 30.841 14.002 65.095 21.804 101.172 21.804 5.751 0 11.452-.214 17.104-.604 4.19-.857 8.066-2.607 11.387-5.084z" fill="#cbed74" data-original="#cbed74" class=""></path><path xmlns="http://www.w3.org/2000/svg" d="m214.818 504.528-19.129-222.311c-1.197-13.909 5.937-26.474 17.098-33.017h-30.101-48.953l20.355 236.557c.131 1.519.384 3 .739 4.438 19.039 8.644 39.381 14.916 60.647 18.457-.298-1.345-.535-2.716-.656-4.124z" fill="#add841" data-original="#add841" class=""></path><path xmlns="http://www.w3.org/2000/svg" d="m257.663 316.857c-16.32 0-16.32 11.003-32.641 11.003-16.32 0-16.32-11.003-32.64-11.003-16.322 0-16.322 11.003-32.645 11.003-10.485 0-14.238-4.538-19.905-7.785l14.257 165.683c.131 1.519.384 3 .739 4.438.313.142.646.288.964.432 30.591 13.729 64.506 21.372 100.208 21.372 12.804 0 25.377-.986 37.65-2.879-.984-.91-1.948-1.846-2.866-2.834-10.352-11.135-39.553-38.299-38.44-53.546 1.391-19.063 13.032-36.161 30.38-44.621l.424-.207.132-.452c.887-3.035 3.188-5.432 6.152-6.411 4.536-1.498 9.264-2.361 14.025-2.609l6.743-78.364c-5.665 3.247-9.418 7.784-19.9 7.784-16.318-.002-16.318-11.004-32.637-11.004z" fill="#add841" data-original="#add841" class=""></path><path xmlns="http://www.w3.org/2000/svg" d="m215.474 508.648c-.298-1.344-.534-2.714-.655-4.121l-16.091-186.999c-1.824-.421-3.898-.672-6.346-.672-16.322 0-16.322 11.003-32.645 11.003-10.485 0-14.238-4.538-19.905-7.785l14.257 165.683c.131 1.519.384 3 .739 4.438 18.916 8.589 39.392 14.913 60.646 18.453z" fill="#5db33a" data-original="#5db33a" class=""></path><path xmlns="http://www.w3.org/2000/svg" d="m333.424 412.097c-4.417 0-7.997-3.58-7.997-7.997 0-8.89 2.302-30.536 23.623-39.496 4.068-1.714 8.758.202 10.47 4.274 1.711 4.071-.202 8.759-4.274 10.47-6.307 2.651-13.825 9.096-13.825 24.752-.001 4.417-3.58 7.997-7.997 7.997z" fill="#68c37d" data-original="#68c37d" class=""></path><path xmlns="http://www.w3.org/2000/svg" d="m382.926 405.942c.971 2.2 1.079 4.621.275 6.879-2.605 7.326-7.652 10.246-11.507 10.535-2.443.182-4.874-.53-7.448-1.288-3.115-.915-6.336-1.861-9.639-1.112-3.302.748-5.799 2.981-8.214 5.14-1.057.946-2.15 1.924-3.275 2.735-6.243 4.5-15.341 4.551-21.632.122-1.684-1.185-3.25-2.706-4.765-4.178-2.807-2.727-5.709-5.546-9.637-6.594-1.25-.334-2.563-.456-3.904-.456-1.92 0-3.9.252-5.84.499-5.829.744-10.872 1.387-13.523-4.231l-.124-.269c-1.027-2.295-1.043-4.846-.066-7.214-17.942 8.146-30.848 25.648-32.345 46.151-1.947 26.674 15.083 49.68 38.969 56.942 47.92-6.704 91.402-27.254 126.253-57.498-1.729-20.746-15.134-38.352-33.578-46.163z" fill="#e5646e" data-original="#e5646e"></path><path xmlns="http://www.w3.org/2000/svg" d="m325.578 461.149c.805-11.026 4.914-21.182 11.327-29.484-5.219 1.289-11.008.395-15.419-2.711-1.684-1.185-3.25-2.706-4.765-4.178-2.807-2.727-5.709-5.546-9.637-6.594-1.251-.334-2.563-.456-3.904-.456-1.92 0-3.899.252-5.84.499-5.829.744-10.872 1.387-13.523-4.231l-.124-.269c-1.026-2.295-1.042-4.846-.066-7.214-17.942 8.146-30.848 25.648-32.345 46.151-1.947 26.674 15.083 49.68 38.969 56.942 15.963-2.233 31.43-6.011 46.253-11.164-7.716-10.243-11.95-23.258-10.926-37.291z" fill="#e7387f" data-original="#e7387f"></path><path xmlns="http://www.w3.org/2000/svg" d="m319.254 250.301h-188.475c-8.204 0-14.854-6.65-14.854-14.854s6.65-14.854 14.854-14.854h188.475c8.204 0 14.854 6.65 14.854 14.854 0 8.203-6.65 14.854-14.854 14.854z" fill="#d9ef78" data-original="#d9ef78" class=""></path><path xmlns="http://www.w3.org/2000/svg" d="m203.235 235.447c0-8.204 6.65-14.854 14.854-14.854h-87.31c-8.204 0-14.854 6.65-14.854 14.854s6.65 14.854 14.854 14.854h87.31c-8.203 0-14.854-6.651-14.854-14.854z" fill="#cbed74" data-original="#cbed74" class=""></path><path xmlns="http://www.w3.org/2000/svg" d="m312.135 299.425h-25.145c-4.417 0-7.997-3.58-7.997-7.997s3.58-7.997 7.997-7.997h25.145c4.417 0 7.997 3.58 7.997 7.997s-3.58 7.997-7.997 7.997z" fill="#d9ef78" data-original="#d9ef78" class=""></path><path xmlns="http://www.w3.org/2000/svg" d="m309.533 329.254h-15.243c-4.417 0-7.997-3.58-7.997-7.997s3.58-7.997 7.997-7.997h15.243c4.417 0 7.997 3.58 7.997 7.997s-3.58 7.997-7.997 7.997z" fill="#d9ef78" data-original="#d9ef78" class=""></path><path xmlns="http://www.w3.org/2000/svg" d="m306.932 359.084h-25.146c-4.417 0-7.997-3.58-7.997-7.997s3.58-7.997 7.997-7.997h25.146c4.417 0 7.997 3.58 7.997 7.997s-3.58 7.997-7.997 7.997z" fill="#cbed74" data-original="#cbed74" class=""></path><path xmlns="http://www.w3.org/2000/svg" d="m304.33 388.914h-15.243c-4.417 0-7.997-3.58-7.997-7.997s3.58-7.997 7.997-7.997h15.243c4.417 0 7.997 3.58 7.997 7.997s-3.58 7.997-7.997 7.997z" fill="#cbed74" data-original="#cbed74" class=""></path><path xmlns="http://www.w3.org/2000/svg" d="m377.198 399.557c-10.614-3.166-22.333-3.071-33.219.585-6.529 2.193-13.593 2.193-20.122 0-11.326-3.803-23.635-3.779-34.757-.105-5.824 1.924-8.9 8.533-6.396 14.132.044.099.089.197.135.294 4.626 9.802 15.976 2.637 23.965 4.766 5.728 1.527 9.212 7.199 14.059 10.611 6.656 4.685 16.285 4.63 22.887-.129 3.688-2.659 6.66-6.692 11.094-7.697 5.613-1.272 11.193 2.855 16.931 2.423 4.591-.345 9.829-3.897 12.445-11.252 2.021-5.679-1.247-11.905-7.022-13.628z" fill="#97d57e" data-original="#97d57e" class=""></path><path xmlns="http://www.w3.org/2000/svg" d="m327.608 0h-12.084c-15.834 0-28.788 12.955-28.788 28.788h69.661c-.001-15.833-12.956-28.788-28.789-28.788z" fill="#fff442" data-original="#fff442"></path><path xmlns="http://www.w3.org/2000/svg" d="m315.004 15.151c0-6.804 4.127-12.642 10.014-15.151h-9.494c-15.834 0-28.788 12.955-28.788 28.788h35.506c-4.367-2.961-7.238-7.963-7.238-13.637z" fill="#ffe400" data-original="#ffe400" class=""></path><path xmlns="http://www.w3.org/2000/svg" d="m373.375 27.722h-103.619c-13.558 0-24.651 11.093-24.651 24.651 0 13.558 11.093 24.651 24.651 24.651h103.619c13.558 0 24.651-11.093 24.651-24.651 0-13.558-11.093-24.651-24.651-24.651z" fill="#fdca00" data-original="#fdca00"></path><path xmlns="http://www.w3.org/2000/svg" d="m304.338 52.373c0-11.427 7.473-21.186 17.77-24.651h-52.352c-13.558 0-24.651 11.093-24.651 24.651 0 13.558 11.093 24.651 24.651 24.651h52.352c-10.297-3.464-17.77-13.224-17.77-24.651z" fill="#feac00" data-original="#feac00" class=""></path><path xmlns="http://www.w3.org/2000/svg" d="m356.022 120.208h-8.146c-5.878 0-11.425-2.909-14.839-7.783-.908-1.294-2.373-2.069-3.918-2.069h-15.105c-1.545 0-3.01.773-3.918 2.07-3.416 4.873-8.963 7.782-14.839 7.782h-8.146c-11.464 0-20.792-9.328-20.792-20.792v-24.523c0-4.417 3.58-7.997 7.997-7.997s7.997 3.58 7.997 7.997v24.523c0 2.601 2.197 4.798 4.798 4.798h8.146c.665 0 1.316-.361 1.741-.967 3.898-5.563 10.259-8.885 17.016-8.885h15.105c6.754 0 13.116 3.322 17.016 8.885.425.606 1.076.967 1.741.967h8.146c2.601 0 4.798-2.197 4.798-4.798v-24.523c0-4.417 3.58-7.997 7.997-7.997s7.997 3.58 7.997 7.997v24.523c-.001 11.464-9.328 20.792-20.792 20.792z" fill="#ffe400" data-original="#ffe400" class=""></path><path xmlns="http://www.w3.org/2000/svg" d="m322.109 94.362h-8.095c-6.757 0-13.118 3.322-17.016 8.885-.425.606-1.075.967-1.741.967h-8.146c-2.601 0-4.798-2.197-4.798-4.798v-24.523c0-4.417-3.58-7.997-7.997-7.997s-7.997 3.58-7.997 7.997v24.523c0 11.464 9.328 20.792 20.792 20.792h8.146c5.876 0 11.422-2.909 14.839-7.782.908-1.297 2.373-2.07 3.918-2.07h8.095c-8.583-8.584 0-15.994 0-15.994z" fill="#fdca00" data-original="#fdca00"></path><path xmlns="http://www.w3.org/2000/svg" d="m332.29 401.739-.008-.019c-2.85-.148-5.686-.658-8.426-1.579-11.326-3.803-23.635-3.779-34.757-.105-5.824 1.924-8.9 8.533-6.396 14.132.044.099.089.197.135.294 4.626 9.802 15.976 2.637 23.965 4.766 5.728 1.527 9.211 7.199 14.059 10.611 6.656 4.685 16.285 4.63 22.888-.129-25.385-8.321-11.46-27.971-11.46-27.971z" fill="#68c37d" data-original="#68c37d" class=""></path><ellipse xmlns="http://www.w3.org/2000/svg" cx="327.126" cy="475.704" fill="#e7387f" rx="12.84" ry="12.84" transform="matrix(.23 -.973 .973 .23 -211.011 684.784)" data-original="#e7387f"></ellipse><circle xmlns="http://www.w3.org/2000/svg" cx="329.691" cy="456.49" fill="#e7387f" r="8.125" data-original="#e7387f"></circle><circle xmlns="http://www.w3.org/2000/svg" cx="357.407" cy="453.302" fill="#e7387f" r="6.688" data-original="#e7387f"></circle></g></svg>